<?xml version="1.0" encoding="UTF-8"?> <svg xmlns="http://www.w3.org/2000/svg" width="90" height="90" viewBox="0 0 90 90" fill="none"><path d="M26.685 37.7175C25.1025 37.7175 23.7687 37.1738 22.6837 36.0863C21.5987 34.9988 21.0575 33.6913 21.06 32.1638C21.06 30.5963 21.6012 29.255 22.6837 28.14C23.7687 27.025 25.1025 26.4675 26.685 26.4675C28.265 26.4675 29.5975 27.0213 30.6825 28.1288C31.7675 29.2363 32.31 30.5688 32.31 32.1263C32.31 33.6838 31.7675 35.005 30.6825 36.09C29.5975 37.175 28.265 37.7175 26.685 37.7175ZM21.06 78.75C19.9975 78.75 19.1062 78.3663 18.3862 77.5988C17.6662 76.8313 17.3075 75.9163 17.31 74.8538C15.5825 74.8538 14.1413 74.2475 12.9863 73.035C11.8313 71.8225 11.2525 70.3625 11.25 68.655V54.9525C11.25 54.095 11.54 53.375 12.12 52.7925C12.7 52.21 13.42 51.92 14.28 51.9225H21.06V49.0388C21.06 47.0963 21.74 45.4213 23.1 44.0138C24.46 42.6063 26.11 41.9013 28.05 41.8988C29.205 41.8988 30.29 42.1613 31.305 42.6863C32.32 43.2113 33.2162 43.9113 33.9937 44.7863L37.8038 49.2263C38.3038 49.7413 38.7875 50.2225 39.255 50.67C39.7225 51.1175 40.2387 51.535 40.8037 51.9225H67.5V20.2125C67.5 18.8075 67.0312 17.5888 66.0938 16.5563C65.1562 15.5238 64.01 15.005 62.655 15C62.0075 15 61.3875 15.1375 60.795 15.4125C60.2025 15.69 59.6775 16.0575 59.22 16.515L54.5325 21.3113C54.845 22.3988 54.9075 23.47 54.72 24.525C54.5325 25.58 54.1575 26.5675 53.595 27.4875L45.8775 19.5863C46.7525 19.0088 47.69 18.64 48.69 18.48C49.69 18.32 50.69 18.4325 51.69 18.8175L56.3775 14.0025C57.215 13.14 58.17 12.465 59.2425 11.9775C60.315 11.49 61.4525 11.2475 62.655 11.25C65.0675 11.25 67.1037 12.125 68.7637 13.875C70.4237 15.625 71.2525 17.7363 71.25 20.2088V51.9225H75.72C76.58 51.9225 77.3 52.2125 77.88 52.7925C78.46 53.375 78.75 54.095 78.75 54.9525V68.655C78.75 70.36 78.1725 71.82 77.0175 73.035C75.8625 74.25 74.4212 74.8563 72.6938 74.8538C72.6938 75.9163 72.3338 76.8313 71.6138 77.5988C70.8937 78.3663 70.0025 78.75 68.94 78.75H21.06ZM17.31 71.1038H72.6938C73.3662 71.1038 73.9187 70.8638 74.3512 70.3838C74.7837 69.9038 75 69.3275 75 68.655V55.6725H15V68.655C15 69.3275 15.2162 69.9038 15.6487 70.3838C16.0812 70.8663 16.635 71.1038 17.31 71.1038ZM17.31 71.1038L15 71.1075H75L17.31 71.1038Z" fill="#FF7F50"></path></svg> 