<?xml version="1.0" encoding="UTF-8"?> <svg xmlns="http://www.w3.org/2000/svg" width="90" height="90" viewBox="0 0 90 90" fill="none"><g clip-path="url(#clip0_5_1154)"><path d="M89.9132 68.5696C89.5697 67.3725 88.3186 66.7021 87.1321 67.0231L72.3826 71.2381L59.7482 62.8156C59.3792 62.5696 58.9441 62.4376 58.5001 62.4376H6.75C5.50653 62.4376 4.5 63.4441 4.5 64.6876C4.5 65.9311 5.50653 66.9376 6.75 66.9376H57.8175L70.7505 75.5597C71.124 75.8088 71.5589 75.9376 71.9986 75.9376C72.2056 75.9376 72.4141 75.9092 72.6166 75.8522L88.3666 71.3522C89.5621 71.0086 90.2536 69.7635 89.9132 68.5696Z" fill="#FF7F50"></path><path d="M74.2486 44.4374C68.0461 44.4374 62.9985 49.4834 62.9985 55.6874C62.9985 61.8899 68.0461 66.9374 74.2486 66.9374C80.4526 66.9374 85.4986 61.8899 85.4986 55.6874C85.4986 49.4835 80.4526 44.4374 74.2486 44.4374ZM74.2486 62.4374C70.5211 62.4374 67.4985 59.4149 67.4985 55.6874C67.4985 51.96 70.5211 48.9374 74.2486 48.9374C77.976 48.9374 80.9986 51.96 80.9986 55.6874C80.9987 59.415 77.9762 62.4374 74.2486 62.4374Z" fill="#FF7F50"></path><path d="M38.25 14.0624C32.0476 14.0624 27 19.1084 27 25.3124C27 31.5164 32.046 36.5624 38.25 36.5624C44.4541 36.5624 49.5 31.5149 49.5 25.3124C49.5 19.1085 44.4541 14.0624 38.25 14.0624ZM38.25 32.0624C34.5226 32.0624 31.5 29.0398 31.5 25.3124C31.5 21.585 34.521 18.5624 38.25 18.5624C41.9775 18.5624 45 21.585 45 25.3124C45 29.0398 41.9775 32.0624 38.25 32.0624Z" fill="#FF7F50"></path><path d="M50.6566 49.2586L28.1566 35.7586C27.6182 35.4376 26.9686 35.346 26.3701 35.5276C25.7686 35.7031 25.2676 36.1216 24.9857 36.6811L15.9856 54.6811C15.4307 55.7926 15.8821 57.1442 16.9936 57.7007C17.3161 57.8612 17.6596 57.9377 17.9971 57.9377C18.8236 57.9377 19.6171 57.4831 20.0116 56.6942L27.924 40.8677L48.3405 53.1167C49.4086 53.7557 50.7885 53.4108 51.4276 52.3457C52.0667 51.2806 51.7217 49.8976 50.6566 49.2586Z" fill="#FF7F50"></path><path d="M58.5001 71.4375H2.25C1.00653 71.4375 0 72.444 0 73.6875C0 74.931 1.00653 75.9375 2.25 75.9375H58.5001C59.7436 75.9375 60.7501 74.931 60.7501 73.6875C60.7501 72.444 59.7436 71.4375 58.5001 71.4375Z" fill="#FF7F50"></path></g><defs><clipPath id="clip0_5_1154"><rect width="90" height="90" fill="white"></rect></clipPath></defs></svg> 